<svg xmlns:xlink="http://www.w3.org/1999/xlink" style="shape-rendering:geometricPrecision; text-rendering:geometricPrecision; image-rendering:optimizeQuality; fill-rule:evenodd; clip-rule:evenodd" height="248px" width="248px" version="1.1" xmlns="http://www.w3.org/2000/svg">
<g><path d="M 2.5,-0.5 C 3.5,-0.5 4.5,-0.5 5.5,-0.5C 10.7982,2.48452 16.1315,5.48452 21.5,8.5C 21.8212,10.0481 22.8212,10.7148 24.5,10.5C 33.8333,15.5 43.1667,20.5 52.5,25.5C 52.8212,27.0481 53.8212,27.7148 55.5,27.5C 61.325,30.2453 66.9916,33.2453 72.5,36.5C 72.8212,38.0481 73.8212,38.7148 75.5,38.5C 84.8333,43.5 94.1667,48.5 103.5,53.5C 103.821,55.0481 104.821,55.7148 106.5,55.5C 112.325,58.2453 117.992,61.2453 123.5,64.5C 123.821,66.0481 124.821,66.7148 126.5,66.5C 135.833,71.5 145.167,76.5 154.5,81.5C 154.821,83.0481 155.821,83.7148 157.5,83.5C 163.325,86.2453 168.992,89.2453 174.5,92.5C 174.821,94.0481 175.821,94.7148 177.5,94.5C 186.833,99.5 196.167,104.5 205.5,109.5C 205.821,111.048 206.821,111.715 208.5,111.5C 213.965,114.066 219.298,116.899 224.5,120C 225.097,121.062 225.43,122.228 225.5,123.5C 218.43,164.09 211.097,204.59 203.5,245C 160.155,245.613 116.822,245.113 73.5,243.5C 49.4233,162.272 25.7567,80.9383 2.5,-0.5 Z" fill="#121211" style="opacity:1"></path></g>
<g><path d="M 21.5,8.5 C 22.7095,8.93205 23.7095,9.59872 24.5,10.5C 22.8212,10.7148 21.8212,10.0481 21.5,8.5 Z" fill="#777777" style="opacity:0.941"></path></g>
<g><path d="M 20.5,19.5 C 85.523,54.6748 150.19,90.3415 214.5,126.5C 200.417,131.638 186.417,136.972 172.5,142.5C 139.7,122.929 106.7,103.596 73.5,84.5C 54.9882,63.483 36.9882,41.983 19.5,20C 19.7284,19.6012 20.0618,19.4346 20.5,19.5 Z" fill="#d4d0b5" style="opacity:1"></path></g>
<g><path d="M 20.5,19.5 C 20.0618,19.4346 19.7284,19.6012 19.5,20C 36.9882,41.983 54.9882,63.483 73.5,84.5C 84.8321,121.488 96.1654,158.488 107.5,195.5C 99.2445,208.746 90.2445,221.413 80.5,233.5C 59.9149,162.329 39.2482,91.1625 18.5,20C 19.0311,18.282 19.6977,18.1153 20.5,19.5 Z" fill="#968164" style="opacity:1"></path></g>
<g><path d="M 52.5,25.5 C 53.7095,25.9321 54.7095,26.5987 55.5,27.5C 53.8212,27.7148 52.8212,27.0481 52.5,25.5 Z" fill="#777777" style="opacity:0.941"></path></g>
<g><path d="M 72.5,36.5 C 73.7095,36.9321 74.7095,37.5987 75.5,38.5C 73.8212,38.7148 72.8212,38.0481 72.5,36.5 Z" fill="#777777" style="opacity:0.941"></path></g>
<g><path d="M 103.5,53.5 C 104.71,53.9321 105.71,54.5987 106.5,55.5C 104.821,55.7148 103.821,55.0481 103.5,53.5 Z" fill="#777777" style="opacity:0.941"></path></g>
<g><path d="M 123.5,64.5 C 124.71,64.9321 125.71,65.5987 126.5,66.5C 124.821,66.7148 123.821,66.0481 123.5,64.5 Z" fill="#777777" style="opacity:0.941"></path></g>
<g><path d="M 154.5,81.5 C 155.71,81.9321 156.71,82.5987 157.5,83.5C 155.821,83.7148 154.821,83.0481 154.5,81.5 Z" fill="#777777" style="opacity:0.941"></path></g>
<g><path d="M 73.5,84.5 C 106.7,103.596 139.7,122.929 172.5,142.5C 168.366,158.704 164.699,175.038 161.5,191.5C 143.561,192.997 125.561,194.33 107.5,195.5C 96.1654,158.488 84.8321,121.488 73.5,84.5 Z" fill="#080705" style="opacity:1"></path></g>
<g><path d="M 174.5,92.5 C 175.71,92.9321 176.71,93.5987 177.5,94.5C 175.821,94.7148 174.821,94.0481 174.5,92.5 Z" fill="#777777" style="opacity:0.941"></path></g>
<g><path d="M 84.5,96.5 C 112.197,112.01 139.531,128.01 166.5,144.5C 155.762,148.852 145.096,153.185 134.5,157.5C 116.942,137.939 99.9423,117.772 83.5,97C 83.7284,96.6012 84.0618,96.4346 84.5,96.5 Z" fill="#656259" style="opacity:1"></path></g>
<g><path d="M 84.5,96.5 C 84.0618,96.4346 83.7284,96.6012 83.5,97C 99.9423,117.772 116.942,137.939 134.5,157.5C 134.5,157.833 134.5,158.167 134.5,158.5C 133.504,158.414 132.671,158.748 132,159.5C 125.247,170.006 118.247,180.34 111,190.5C 101.095,158.461 91.4284,126.461 82,94.5C 82.9947,95.0659 83.828,95.7326 84.5,96.5 Z" fill="#2a231b" style="opacity:1"></path></g>
<g><path d="M 205.5,109.5 C 206.71,109.932 207.71,110.599 208.5,111.5C 206.821,111.715 205.821,111.048 205.5,109.5 Z" fill="#777777" style="opacity:0.941"></path></g>
<g><path d="M 214.5,126.5 C 208.569,162.512 202.402,198.512 196,234.5C 195.617,235.056 195.117,235.389 194.5,235.5C 184.25,222.015 173.75,208.682 163,195.5C 162.209,194.255 161.709,192.922 161.5,191.5C 164.699,175.038 168.366,158.704 172.5,142.5C 186.417,136.972 200.417,131.638 214.5,126.5 Z" fill="#b8b298" style="opacity:1"></path></g>
<g><path d="M 166.5,144.5 C 163.809,158.932 160.642,173.265 157,187.5C 149.491,177.803 141.991,168.137 134.5,158.5C 134.5,158.167 134.5,157.833 134.5,157.5C 145.096,153.185 155.762,148.852 166.5,144.5 Z" fill="#3a362d" style="opacity:1"></path></g>
<g><path d="M 161.5,191.5 C 161.709,192.922 162.209,194.255 163,195.5C 173.75,208.682 184.25,222.015 194.5,235.5C 159.832,235.667 125.165,235.5 90.5,235C 86.9748,234.821 83.6414,234.321 80.5,233.5C 90.2445,221.413 99.2445,208.746 107.5,195.5C 125.561,194.33 143.561,192.997 161.5,191.5 Z" fill="#6c5c42" style="opacity:1"></path></g>
</svg>
