<svg viewBox="0 0 870.72 927.59" xmlns="http://www.w3.org/2000/svg" data-name="Layer 1" id="Layer_1">
  <defs>
    <style>
      .cls-1 {
        fill: #ffffff;
        stroke-width: 0px;
      }
    </style>
  </defs>
  <path d="M834.68,456.19c-75.8-75.8-173.57-173.57-249.34-249.34-10.67,15.97-16.51,34.3-16.88,53.84l231.54,231.54-43.7,43.7c-8.54-71.68-59.88-133.19-128.11-155.05-58.13-18.79-95.25-82.77-82.36-142.82,2.57-12.99,7.16-25.25,13.43-36.46,34-58.5,41.74-136.85,19.44-201.6-20.06,105.74-94.52,194.08-194.16,232.56-.01,0-.02,0-.03.01-81.37,25.33-93.87,139.14-19.86,181.45-29.1-47.22-1.28-115.41,53.25-128.35.04.07.1.13.15.2h.01c49.7,58.39,48.64,152-2.74,209.28-22.35,26.37-71.91,58.99-107.57,52.02-15.68-4.64-26.87-19.17-26.84-35.96-.35-13.1,8.22-22.9,12.37-34.63,22.82-54.51,16.69-122.47-16.11-171.98,3.27,73.17-40.16,143.7-104.84,174.78,0,.01,0,.01-.02.01-1.43.84-2.85,1.7-4.24,2.6,0,0-.01,0-.01,0-21.82,13.95-39,34.5-48.76,58.81-3.35-3.35-46.91-46.91-48.58-48.58L435.36,127.59l27.89,27.89c12.45-11.13,23.93-23.32,34.28-36.44l-62.17-62.17C301.47,190.76,133.19,359.04,0,492.23l435.36,435.36,435.36-435.36-36.04-36.04ZM662.22,540.28c-.77,45.14-13.74,89.09-37.32,127.05,0,0-81.12,81.12-81.12,81.12,0,0-3.9,3.9-3.9,3.9-32.16-17.72-49.59,2.95-79.57-1.99-43.09-6.33-66.1-60.03-41.57-95.53-36.72,25.03-66.44,59.75-85.43,99.99-40.21-40.21-88.71-88.71-129.06-129.06,6-23.86,18.87-44.99,36.37-61.17-4.75,26.33-.11,55.52,11.88,78.39,18.16-29.37,48.91-50.79,83.64-57,16.54-2.48,32.69-8.39,46.84-17.16h0c16.9-10.42,31.15-24.8,41.44-41.8.21,22.26-11.12,42.17-29.36,53.63-42.81,28.73-72.76,75.32-80.54,126.53,46.59-88.42,137.11-151.28,236.49-163.19,7.86-33.99.05-72.28-20.45-100.2-19.47-28.7-25.92-66.32-17.21-100.07,2.48,52.57,40.04,99.5,91.09,113.46-11.65,27.35-12.77,59.97-3.25,87.93-21.43,5.28-41.81,14.42-60.01,26.79h-.01c-21.34,14.49-39.53,33.26-53.34,55.09h0c-13.05,20.63-21.96,43.54-26.17,67.82-4.19,78.14,147.11-1.92,135.51-96.38,34.51,2.06,65.57-27.52,65.09-62.25,0,1.37-.02,2.74-.04,4.1Z" class="cls-1"></path>
</svg>